# xmcd
# Track frame offsets:
# 150
# 20025
# 38802
# 53641
# 64958
# 79090
# 96577
# 108124
# 122054
# 140731
# 159074
# 174059
#
# Disc length: 2521 seconds
# Revision: 0
# Processed by: cddbd v1.5.2PL0 Copyright (c) Steve Scherf et al.
# Submitted via: VisiTrax 2.10.2.252 - For more info visit www.synapsa.com
#
DISCID=9709d70c
DTITLE=John Lee Hooker JR. - All odds against me
DYEAR=2008
DGENRE=Blues
TTITLE0=Dear John
TTITLE1=Extramarital affair
TTITLE2=One eye open
TTITLE3=I miss you so
TTITLE4=I´ve got your back
TTITLE5=Pay day
TTITLE6=Stressed out
TTITLE7=There´s a struggle
TTITLE8=Old school
TTITLE9=Blues ain´t nothing but a pimp
TTITLE10=The people want a change
TTITLE11=That be the blues
EXTD=
EXTT0=
EXTT1=
EXTT2=
EXTT3=
EXTT4=
EXTT5=
EXTT6=
EXTT7=
EXTT8=
EXTT9=
EXTT10=
EXTT11=
PLAYORDER=
